<?xml version="1.0" encoding="UTF-8" standalone="no"?>
<!DOCTYPE svg PUBLIC "-//W3C//DTD SVG 20010904//EN" "http://www.w3.org/TR/2001/REC-SVG-20010904/DTD/svg10.dtd">
<svg version="1.0" xmlns="http://www.w3.org/2000/svg" width="1288.000000pt" height="1277.000000pt" viewBox="0 0 1288.000000 1277.000000" preserveAspectRatio="xMidYMid meet">

<g transform="translate(0.000000,1277.000000) scale(0.100000,-0.100000)" fill="#000000" stroke="none">
<path d="M10385 12662 c-38 -21 -111 -66 -161 -99 -50 -33 -109 -70 -132 -82 -23 -12 -138 -86 -257 -166 -118 -79 -237 -156 -264 -170 -27 -13 -107 -63 -177 -110 -70 -47 -131 -85 -136 -85 -4 0 -41 -22 -82 -49 -42 -27 -95 -58 -119 -70 -24 -11 -67 -41 -97 -67 -29 -25 -79 -58 -110 -74 -31 -16 -80 -48 -108 -72 -28 -24 -73 -55 -99 -68 -62 -30 -306 -193 -359 -239 -23 -20 -71 -51 -108 -70 -36 -18 -85 -50 -109 -71 -23 -20 -89 -69 -147 -109 -58 -39 -124 -86 -147 -104 -44 -34 -81 -61 -191 -140 -37 -26 -78 -58 -92 -71 -14 -13 -72 -55 -130 -94 -58 -38 -118 -84 -135 -102 -16 -18 -59 -52 -95 -75 -36 -23 -81 -59 -100 -80 -19 -20 -60 -53 -90 -72 -30 -20 -107 -87 -172 -149 -64 -63 -122 -114 -128 -114 -10 0 -231 -206 -383 -357 -102 -102 -267 -283 -294 -323 -17 -25 -58 -73 -91 -107 -34 -34 -77 -85 -96 -115 -18 -30 -42 -60 -52 -68 -9 -8 -33 -40 -52 -70 -19 -30 -50 -72 -68 -92 -19 -21 -52 -75 -75 -120 -23 -46 -58 -108 -79 -139 -22 -31 -58 -94 -81 -140 -23 -46 -58 -109 -79 -139 -20 -30 -61 -104 -90 -165 -29 -60 -73 -138 -98 -173 -25 -36 -55 -94 -68 -135 -13 -40 -64 -152 -113 -250 -62 -123 -109 -235 -152 -360 -34 -100 -68 -193 -75 -207 -22 -38 -131 -370 -143 -431 -5 -30 -17 -74 -25 -98 -9 -24 -16 -53 -16 -66 0 -12 -9 -48 -20 -80 -11 -32 -20 -69 -20 -82 0 -27 -41 -73 -64 -73 -8 0 -102 58 -208 129 -106 70 -213 138 -238 151 -25 12 -67 38 -93 57 -27 19 -84 52 -128 73 -44 22 -106 57 -137 78 -74 50 -597 312 -682 341 -36 13 -141 61 -233 107 -93 47 -205 99 -250 115 -45 17 -86 34 -92 39 -7 5 -42 19 -78 30 -37 12 -132 54 -211 94 -79 41 -168 81 -197 91 -30 9 -89 35 -132 57 -61 31 -87 38 -120 36 -40 -3 -42 -5 -50 -43 -5 -22 -17 -70 -28 -106 -10 -36 -19 -88 -19 -116 0 -27 -9 -76 -20 -108 -13 -38 -20 -84 -20 -135 0 -51 -7 -97 -20 -135 -17 -49 -20 -84 -20 -224 0 -115 -5 -183 -15 -221 -22 -82 -22 -1331 0 -1404 10 -33 15 -93 15 -181 0 -106 4 -143 20 -190 11 -32 20 -84 20 -115 0 -31 9 -83 20 -115 11 -32 20 -75 20 -95 0 -20 9 -63 19 -96 10 -32 27 -97 36 -144 33 -164 50 -221 186 -635 23 -71 58 -159 77 -195 18 -36 45 -96 58 -135 30 -91 178 -381 237 -468 26 -38 47 -72 47 -77 0 -18 129 -206 165 -240 20 -19 52 -58 71 -87 18 -29 107 -126 198 -217 139 -140 184 -178 298 -252 73 -48 171 -107 218 -132 107 -55 326 -131 405 -140 50 -6 61 -11 72 -31 14 -30 3 -57 -29 -67 -13 -4 -50 -25 -83 -47 -73 -50 -1009 -518 -1085 -542 -30 -10 -68 -26 -85 -37 -67 -40 -135 -3 -135 73 0 59 -31 53 -69 -13 -38 -67 -204 -232 -296 -294 -38 -26 -97 -56 -130 -66 -33 -11 -69 -25 -80 -32 -31 -19 -193 -76 -219 -76 -13 0 -49 -9 -81 -20 -55 -19 -84 -20 -530 -20 -446 0 -475 1 -530 20 -95 33 -166 21 -183 -30 -13 -35 -3 -187 12 -199 25 -19 143 -51 191 -51 29 0 74 -7 101 -15 27 -8 76 -15 110 -15 35 0 86 -9 119 -20 32 -11 84 -20 115 -20 31 0 83 -9 115 -20 32 -11 75 -20 95 -20 20 0 63 -9 95 -20 44 -15 84 -20 169 -20 69 0 129 -6 160 -15 32 -10 91 -15 167 -15 99 0 131 4 201 26 98 31 121 45 213 135 117 113 236 180 443 249 183 61 366 147 499 233 39 26 76 47 81 47 5 0 65 37 133 83 68 45 151 98 184 116 83 47 507 333 558 376 23 20 65 47 94 60 28 14 72 43 98 65 25 22 67 52 93 66 26 15 74 44 108 64 34 21 79 43 100 50 21 7 100 42 174 78 108 52 149 78 205 130 103 96 135 117 295 195 80 39 156 78 170 87 14 8 52 24 85 34 33 11 96 37 140 59 44 22 134 58 199 79 65 21 124 42 131 48 17 14 328 120 354 120 11 0 63 13 114 30 52 16 104 30 116 30 11 0 38 -15 58 -33 21 -19 65 -52 98 -74 34 -23 67 -48 74 -56 7 -9 36 -31 64 -48 29 -18 71 -50 93 -70 40 -36 335 -190 439 -230 28 -11 82 -26 120 -34 39 -8 90 -21 114 -30 35 -12 98 -15 334 -15 258 0 298 2 356 19 36 11 102 27 146 37 129 27 331 93 600 197 134 51 326 150 441 228 56 37 131 83 165 101 44 22 101 68 179 144 63 61 135 125 160 142 25 17 111 97 191 179 124 125 164 173 258 314 109 163 183 248 218 250 10 0 208 0 441 -1 336 -1 432 -4 470 -15 61 -19 196 -19 258 0 36 11 101 15 255 15 180 0 213 3 264 20 32 11 75 20 96 20 43 0 90 15 101 33 15 24 7 71 -17 103 -38 50 -47 82 -35 120 11 31 90 114 109 114 6 0 39 26 73 58 35 32 86 73 113 92 28 18 73 54 100 80 28 27 76 64 107 84 59 37 88 76 88 119 0 60 -49 61 -119 2 -29 -25 -57 -45 -61 -45 -5 0 -51 -39 -103 -87 -51 -49 -133 -113 -182 -143 -49 -30 -111 -74 -138 -98 -27 -24 -74 -55 -105 -71 -32 -15 -79 -43 -107 -63 -72 -51 -156 -90 -265 -122 -52 -15 -125 -36 -161 -47 -57 -17 -98 -19 -331 -19 -239 0 -271 2 -323 20 -32 11 -84 20 -115 20 -31 0 -83 9 -115 20 -32 11 -67 20 -77 20 -11 0 -33 14 -50 30 -38 38 -34 71 17 140 20 27 46 79 59 117 13 37 60 142 105 233 45 93 85 188 91 218 5 30 19 75 31 100 35 79 79 214 79 242 0 14 15 57 34 96 19 38 37 87 41 109 5 36 19 86 96 346 10 36 19 75 19 86 0 11 9 46 20 78 11 32 20 74 20 92 0 37 19 126 51 234 10 36 19 90 19 121 0 30 9 81 20 113 13 37 20 84 20 130 0 46 7 93 20 130 13 38 20 84 20 135 0 42 7 99 15 126 9 29 15 89 15 145 0 70 5 112 20 154 19 56 20 84 20 970 0 886 -1 914 -20 970 -14 41 -20 84 -20 149 0 52 -7 112 -15 140 -8 27 -15 84 -15 126 0 51 -7 97 -20 135 -15 45 -20 84 -20 170 0 86 -5 125 -20 170 -11 32 -20 74 -20 93 0 20 -9 65 -19 101 -32 108 -51 197 -51 234 0 18 -9 60 -20 92 -11 32 -20 74 -20 93 0 20 -25 111 -55 203 -54 163 -55 170 -55 282 0 88 -5 127 -20 172 -11 32 -20 67 -20 78 0 11 -9 50 -19 86 -76 259 -91 310 -96 343 -3 20 -33 114 -66 209 -33 95 -67 202 -75 238 -7 37 -20 86 -29 110 -8 24 -15 53 -15 65 0 37 -92 289 -122 334 -40 58 -68 122 -68 154 0 25 -23 48 -47 48 -4 0 -39 -18 -78 -38z"/>
</g>
</svg>