<?xml version="1.0" encoding="UTF-8" standalone="no"?>
<!DOCTYPE svg PUBLIC "-//W3C//DTD SVG 20010904//EN" "http://www.w3.org/TR/2001/REC-SVG-20010904/DTD/svg10.dtd">
<svg version="1.0" xmlns="http://www.w3.org/2000/svg" width="400.000000pt" height="400.000000pt" viewBox="0 0 400.000000 400.000000" preserveAspectRatio="xMidYMid meet">

<g transform="translate(0.000000,400.000000) scale(0.100000,-0.100000)" fill="inherit" stroke="none">
<path d="M199 3141 c6 -11 63 -79 127 -153 182 -209 163 -166 166 -374 l3 -179 245 -6 c364 -9 574 -49 753 -141 80 -42 117 -78 156 -156 27 -53 30 -156 7 -221 -55 -151 -237 -343 -484 -511 l-67 -45 -71 -235 c-40 -129 -70 -239 -67 -243 3 -5 12 -2 21 6 101 84 139 113 214 161 291 189 691 301 1088 305 l125 1 -103 -39 c-276 -107 -553 -272 -687 -410 l-39 -41 826 0 827 0 -13 42 c-8 24 -37 117 -66 208 -28 91 -57 182 -62 203 -9 31 -24 47 -92 94 -350 244 -526 486 -486 669 35 159 257 314 530 369 195 40 469 145 588 227 84 58 172 164 172 208 0 7 -181 10 -565 10 l-565 0 0 135 0 135 -1245 0 c-1222 0 -1246 0 -1236 -19z"/>
</g>
</svg>