<?xml version="1.0" encoding="UTF-8"?>
<svg version="1.1" xmlns="http://www.w3.org/2000/svg" width="276" height="276">
<path d="M0 0 C15.32495046 12.99710989 24.86676359 28.93158506 28.4375 48.75 C31.32973539 87.5977079 14.23779062 120.93286677 -10.2265625 150.078125 C-20.72904022 162.09099249 -31.5888069 173.88223074 -44.125 183.80078125 C-46.13036779 185.40443273 -47.99698801 187.06653573 -49.875 188.8125 C-53.21087404 191.21743245 -54.51698352 191.28088187 -58.5625 190.75 C-60.85101496 189.21342567 -62.68499135 187.78274357 -64.6875 185.9375 C-65.24808105 185.44121094 -65.80866211 184.94492188 -66.38623047 184.43359375 C-68.12508257 182.88664529 -69.84418305 181.31969241 -71.5625 179.75 C-72.60338005 178.81813104 -73.64501823 177.88710802 -74.6875 176.95703125 C-85.12763434 167.58032208 -94.89325048 157.80972321 -103.5625 146.75 C-104.74779297 145.29013672 -104.74779297 145.29013672 -105.95703125 143.80078125 C-128.11937674 115.98442006 -141.67429443 84.67470927 -139.5625 48.75 C-137.35271906 29.58648987 -125.55291568 12.1929049 -111.27734375 -0.125 C-78.30443433 -25.93401112 -32.83547092 -25.8414702 0 0 Z M-83.75 31.6875 C-91.06051747 38.53678608 -96.15864171 48.44054174 -96.80078125 58.47265625 C-97.15380523 72.2501327 -94.43218408 83.33757908 -84.75 93.6875 C-74.714227 103.07580377 -64.43701427 105.24911013 -51.125 105.0234375 C-40.2317357 104.57178738 -31.87929267 99.50898136 -24.58984375 91.61328125 C-15.39410069 80.42610338 -13.34644564 68.90195684 -14.5625 54.75 C-17.11965257 42.60717835 -24.56805063 33.00070977 -34.8046875 26.27734375 C-51.23921524 17.03628963 -69.56371601 20.17585477 -83.75 31.6875 Z " fill="#000000" transform="translate(193.5625,19.25)"/>
<path d="M0 0 C0.98449631 -0.01036789 1.96899261 -0.02073578 2.98332214 -0.03141785 C6.22897349 -0.05846231 9.4732711 -0.04883089 12.71899414 -0.03637695 C14.98051835 -0.04228689 17.24203943 -0.04953403 19.5035553 -0.05805969 C24.24049189 -0.06993607 28.97695849 -0.06323867 33.71386719 -0.04394531 C39.7781442 -0.02106662 45.84101932 -0.04783026 51.90515804 -0.08900738 C56.57472726 -0.11460842 61.24396214 -0.11199895 65.91357613 -0.10111427 C68.14904617 -0.09962924 70.38454204 -0.10729833 72.61994743 -0.12436485 C75.74879297 -0.14437412 78.8751735 -0.12591441 82.00390625 -0.09765625 C82.92308838 -0.11137268 83.84227051 -0.12508911 84.78930664 -0.13922119 C90.48506388 -0.03664275 93.58347675 1.11426145 97.79151249 4.98645306 C100.73873473 8.86108511 100.24160926 13.6126612 100.26977539 18.2800293 C100.27547546 19.01480499 100.28117554 19.74958069 100.28704834 20.50662231 C100.29647412 22.05819265 100.30302268 23.60978279 100.30688477 25.16137695 C100.31658899 27.52290083 100.3476333 29.88355322 100.37915039 32.24487305 C100.38568151 33.75658666 100.39093155 35.26830646 100.39477539 36.7800293 C100.40712219 37.48022186 100.41946899 38.18041443 100.43218994 38.90182495 C100.41114836 43.58075193 99.68381021 46.77155651 97.06665039 50.6628418 C91.89550906 55.07949356 87.78627333 55.23850194 81.30102539 55.18041992 C79.8511322 55.19093384 79.8511322 55.19093384 78.37194824 55.20166016 C75.18655409 55.21922133 72.0020531 55.20762368 68.81665039 55.1940918 C66.59757314 55.19678724 64.37849704 55.2006701 62.15942383 55.20568848 C57.51249935 55.211581 52.86588278 55.2030282 48.21899414 55.18432617 C42.26698294 55.16153712 36.31569324 55.17466147 30.3637085 55.19861603 C25.78257831 55.21308043 21.20161876 55.20846498 16.6204834 55.19810486 C14.42606521 55.19543937 12.23163145 55.19870106 10.03723145 55.20802307 C6.96849621 55.21819889 3.90092415 55.20267226 0.83227539 55.18041992 C-0.07180054 55.18851685 -0.97587646 55.19661377 -1.90734863 55.20495605 C-7.39501692 55.13135606 -10.60396577 54.36099175 -14.93334961 50.6628418 C-17.95888687 46.15544129 -18.36659236 42.11034131 -18.29663086 36.81518555 C-18.29712936 36.08086807 -18.29762787 35.3465506 -18.29814148 34.58998108 C-18.2958127 33.04612505 -18.28615521 31.50226437 -18.26953125 29.95849609 C-18.24588372 27.60373814 -18.24898601 25.25011075 -18.25561523 22.89526367 C-18.25003918 21.38939759 -18.24292975 19.88353624 -18.23413086 18.37768555 C-18.23504227 17.6786058 -18.23595367 16.97952606 -18.2368927 16.25926208 C-18.15378168 10.49623978 -17.45738216 7.27364858 -13.46942139 3.05862427 C-9.30947305 -0.29540267 -5.15776556 -0.04787143 0 0 Z M6.06665039 20.6628418 C6.06665039 25.2828418 6.06665039 29.9028418 6.06665039 34.6628418 C29.16665039 34.6628418 52.26665039 34.6628418 76.06665039 34.6628418 C76.06665039 30.0428418 76.06665039 25.4228418 76.06665039 20.6628418 C52.96665039 20.6628418 29.86665039 20.6628418 6.06665039 20.6628418 Z " fill="#000000" transform="translate(96.933349609375,221.337158203125)"/>
</svg>
