<?xml version="1.0" standalone="no"?>
<!DOCTYPE svg PUBLIC "-//W3C//DTD SVG 20010904//EN"
 "http://www.w3.org/TR/2001/REC-SVG-20010904/DTD/svg10.dtd">
<svg version="1.0" xmlns="http://www.w3.org/2000/svg"
 width="512.000000pt" height="512.000000pt" viewBox="0 0 512.000000 512.000000"
 preserveAspectRatio="xMidYMid meet">

<g transform="translate(0.000000,512.000000) scale(0.100000,-0.100000)"
fill="#000000" stroke="none">
<path d="M2310 5109 c-398 -38 -791 -175 -1135 -397 -267 -172 -573 -474 -752
-742 -202 -303 -342 -668 -400 -1040 -25 -161 -25 -576 0 -740 65 -427 232
-826 486 -1165 96 -127 306 -343 436 -448 350 -282 766 -470 1220 -552 99 -18
586 -33 668 -21 42 6 47 10 47 33 0 31 -149 604 -160 616 -4 5 -88 13 -186 18
-291 16 -464 48 -662 123 -168 64 -315 147 -485 275 -95 71 -257 233 -257 256
0 24 453 296 688 414 l83 42 67 -63 c37 -35 133 -127 214 -206 82 -78 156
-142 165 -142 10 0 209 40 442 89 l423 88 319 319 319 319 -31 115 c-66 249
-66 250 -101 250 -39 0 -397 -91 -514 -130 -88 -30 -91 -32 -200 -141 l-111
-111 -119 -13 c-66 -7 -155 -16 -199 -19 l-80 -6 -107 106 c-132 130 -174 206
-211 381 l-24 111 101 134 c120 158 157 186 282 217 160 39 187 58 423 288
l213 208 -151 149 -150 150 -388 -107 c-213 -58 -402 -110 -420 -114 -25 -6
-69 -49 -189 -183 -139 -155 -419 -478 -451 -520 -10 -13 -1 -57 43 -215 30
-110 59 -237 66 -283 12 -82 12 -82 -12 -100 -39 -27 -172 -107 -355 -212
-279 -160 -354 -200 -374 -200 -14 0 -25 14 -39 53 -55 148 -72 279 -73 547 0
214 12 364 37 465 134 539 492 993 979 1238 235 118 423 171 716 202 78 8 144
16 145 18 12 12 107 634 99 648 -7 11 -224 10 -345 -2z"/>
<path d="M3357 4960 c-19 -15 -30 -39 -41 -88 -12 -55 -96 -505 -96 -518 0 -2
64 -35 143 -73 238 -115 419 -248 597 -439 249 -267 420 -608 476 -952 18
-108 21 -561 4 -649 -49 -257 -153 -510 -304 -735 -91 -136 -269 -328 -401
-431 -65 -51 -258 -181 -340 -230 -17 -10 -12 -33 59 -321 42 -170 81 -315 85
-323 6 -10 34 0 122 42 273 133 491 288 710 506 217 218 353 409 489 686 117
238 191 471 237 742 25 152 25 598 0 758 -42 266 -119 511 -237 750 -250 507
-640 899 -1153 1159 -134 68 -292 136 -315 136 -5 0 -21 -9 -35 -20z"/>
</g>
</svg>
