<?xml version="1.0" encoding="UTF-8"?>
<svg version="1.1" xmlns="http://www.w3.org/2000/svg" width="186" height="186">
<path d="M0 0 C9.74506566 9.74506566 16.79345417 21.98309613 16.90673828 36.01025391 C16.90124068 37.60320058 16.89313647 39.19613979 16.8828125 40.7890625 C16.89138946 42.52865588 16.90186264 44.26824076 16.9140625 46.0078125 C16.93081019 48.7317754 16.93734885 51.45381267 16.91210938 54.17773438 C16.89118269 56.82020346 16.91432132 59.4592579 16.9453125 62.1015625 C16.92792023 62.91517242 16.91052795 63.72878235 16.89260864 64.56704712 C16.94146264 66.85332339 17.04453445 68.65645859 17.8125 70.8125 C20.01941649 72.74490125 22.08151584 73.59241528 24.8125 74.8125 C30.08938204 80.23200047 31.06057226 85.78862493 31.0871582 93.17553711 C31.09226913 93.88693344 31.09738007 94.59832977 31.10264587 95.33128357 C31.11647128 97.66755744 31.11559055 100.00353399 31.11328125 102.33984375 C31.11717191 103.97359831 31.12150734 105.60735187 31.12626648 107.24110413 C31.13371341 110.65971155 31.13344841 114.07821567 31.12817383 117.49682617 C31.12237957 121.86579801 31.13931637 126.23434587 31.1625185 130.60324764 C31.17728872 133.97569732 31.17812311 137.34804563 31.17500877 140.72052193 C31.17552028 142.33078412 31.18072583 143.94105225 31.19082069 145.55128288 C31.20323285 147.80782081 31.19636579 150.06354236 31.18481445 152.32006836 C31.18544388 153.6010289 31.1860733 154.88198944 31.1867218 156.20176697 C30.61980821 161.67171454 28.91894549 166.51159311 24.5625 170.125 C24.02109375 170.59550781 23.4796875 171.06601563 22.921875 171.55078125 C17.11303073 175.02533069 11.01149816 175.10633396 4.43994141 175.0871582 C3.52678665 175.09226913 2.6136319 175.09738007 1.67280579 175.10264587 C-1.33017629 175.11648646 -4.33292742 175.1155892 -7.3359375 175.11328125 C-9.43429651 175.11717134 -11.53265474 175.12150665 -13.63101196 175.12626648 C-18.02389074 175.1337169 -22.41668913 175.13344603 -26.80957031 175.12817383 C-32.42371416 175.12238218 -38.03752777 175.13930876 -43.65161705 175.1625185 C-47.9840587 175.17728978 -52.31642145 175.17812289 -56.64888382 175.17500877 C-58.71802041 175.17552032 -60.78716162 175.18072665 -62.85627365 175.19082069 C-65.75644803 175.203233 -68.65598723 175.19636458 -71.55615234 175.18481445 C-72.40111771 175.19245819 -73.24608307 175.20010193 -74.11665344 175.20797729 C-81.13557111 175.14655906 -87.50188261 173.97267051 -93.0625 169.5 C-97.26991857 164.17885299 -98.56339455 160.04011355 -98.57568359 153.26586914 C-98.58094055 152.53496567 -98.58619751 151.80406219 -98.59161377 151.05101013 C-98.60475099 148.64967078 -98.59609747 146.24900163 -98.5859375 143.84765625 C-98.58796027 142.16906101 -98.59087339 140.49046663 -98.59463501 138.81187439 C-98.59905004 135.29905811 -98.5926547 131.78647119 -98.57861328 128.27368164 C-98.56153501 123.78362004 -98.57135901 119.29409701 -98.58933067 114.80405521 C-98.60020208 111.33894335 -98.5967066 107.87395789 -98.5889473 104.40884209 C-98.58695387 102.75393039 -98.58937428 101.09900701 -98.59638596 99.44410896 C-98.60405454 97.12527463 -98.59232126 94.80729641 -98.57568359 92.48852539 C-98.57329681 91.17203506 -98.57091003 89.85554474 -98.56845093 88.49916077 C-97.99448598 82.94460269 -96.29192755 78.11319603 -91.875 74.4375 C-91.32199219 73.95539063 -90.76898438 73.47328125 -90.19921875 72.9765625 C-87.598489 71.47167422 -85.13840768 71.25113828 -82.1875 70.8125 C-82.20844727 69.66885986 -82.22939453 68.52521973 -82.25097656 67.34692383 C-82.32418846 63.04366927 -82.36959035 58.74046797 -82.40722656 54.43676758 C-82.42715928 52.58543597 -82.45431568 50.73416579 -82.48925781 48.88305664 C-82.81041804 31.4128849 -80.19048911 19.1500679 -69.9375 4.625 C-50.1935087 -15.56771838 -22.4935488 -15.43674918 0 0 Z M-52.1875 19.8125 C-55.71428126 24.48137363 -58.31985381 28.85634297 -58.30102539 34.82495117 C-58.30090454 35.636698 -58.30078369 36.44844482 -58.30065918 37.28479004 C-58.29554321 38.13311401 -58.29042725 38.98143799 -58.28515625 39.85546875 C-58.28414917 40.63877563 -58.28314209 41.42208252 -58.28210449 42.22912598 C-58.27687588 45.15276556 -58.26291461 48.07638426 -58.25 51 C-58.229375 57.538125 -58.20875 64.07625 -58.1875 70.8125 C-41.3575 70.8125 -24.5275 70.8125 -7.1875 70.8125 C-7.105 64.563125 -7.0225 58.31375 -6.9375 51.875 C-6.88287598 48.94379272 -6.88287598 48.94379272 -6.82714844 45.95336914 C-6.81544842 44.37647596 -6.80525972 42.79957054 -6.796875 41.22265625 C-6.7661792 40.02860168 -6.7661792 40.02860168 -6.73486328 38.8104248 C-6.73060892 31.8513477 -8.73918297 26.1104613 -12.8984375 20.5078125 C-18.8729351 14.86990631 -24.20518942 12.19575466 -32.4375 11.5625 C-39.85896819 12.05726455 -46.79164211 14.56428997 -52.1875 19.8125 Z M-47.1875 99.8125 C-49.9528253 103.7012387 -50.73584804 107.17230131 -50.5390625 111.859375 C-49.7315924 116.34532003 -46.92037504 119.13459058 -43.6875 122.125 C-39.29158285 125.09224408 -35.46635189 125.25240432 -30.1875 124.8125 C-24.91491048 122.99912342 -21.24350267 120.57986416 -18.1875 115.8125 C-16.83173363 111.7452009 -16.40169568 108.07997149 -17.8359375 103.94140625 C-19.77030964 100.09746161 -22.11641558 97.42805669 -26.0703125 95.4765625 C-33.88101207 93.02671208 -41.17140284 94.22401759 -47.1875 99.8125 Z M-69.8125 144.4375 C-71.85715553 146.9340131 -72.1875 147.45528022 -72.1875 150.8125 C-46.7775 150.8125 -21.3675 150.8125 4.8125 150.8125 C3.52832527 144.39162637 1.05561271 142.43438707 -4.1875 138.8125 C-13.45460155 134.00073573 -23.16116964 132.43460635 -33.5 132.5 C-34.42208252 132.50491455 -35.34416504 132.5098291 -36.29418945 132.51489258 C-48.28812498 132.72057523 -61.40489196 135.12627053 -69.8125 144.4375 Z " fill="#000000" transform="translate(126.1875,11.1875)"/>
</svg>
