<?xml version="1.0" standalone="no"?>
<!DOCTYPE svg PUBLIC "-//W3C//DTD SVG 20010904//EN"
 "http://www.w3.org/TR/2001/REC-SVG-20010904/DTD/svg10.dtd">
<svg version="1.0" xmlns="http://www.w3.org/2000/svg"
 width="672.000000pt" height="672.000000pt" viewBox="0 0 672.000000 672.000000"
 preserveAspectRatio="xMidYMid meet">

<g transform="translate(0.000000,672.000000) scale(0.100000,-0.100000)"
fill="#000000" stroke="none">
<path d="M3165 6714 c-22 -2 -92 -9 -155 -15 -1140 -108 -2169 -832 -2675
-1881 -226 -471 -328 -918 -329 -1453 -1 -264 9 -377 50 -605 153 -840 605
-1572 1289 -2084 482 -362 1004 -572 1620 -652 160 -21 578 -24 740 -6 951
109 1771 572 2333 1319 374 495 593 1048 663 1673 17 146 17 551 1 695 -90
788 -417 1477 -963 2024 -534 537 -1229 875 -1984 966 -124 15 -506 27 -590
19z m600 -209 c868 -120 1616 -559 2135 -1251 328 -437 528 -932 607 -1494 21
-156 24 -613 4 -765 -74 -575 -278 -1086 -611 -1529 -113 -151 -261 -317 -379
-424 -53 -48 -98 -89 -101 -92 -3 -3 -45 -37 -95 -76 -462 -363 -963 -574
-1566 -661 -173 -24 -620 -24 -798 1 -570 80 -1048 273 -1493 604 -624 465
-1052 1135 -1212 1898 -40 189 -56 333 -63 544 -13 458 64 891 234 1305 325
790 979 1435 1769 1743 323 125 572 182 944 216 96 9 519 -4 625 -19z"/>
<path d="M3080 6378 c-1016 -95 -1937 -716 -2406 -1621 -176 -342 -276 -662
-325 -1047 -18 -139 -18 -561 0 -700 65 -506 235 -954 519 -1370 284 -416 694
-768 1157 -995 426 -209 787 -298 1255 -312 579 -16 1127 127 1630 426 731
435 1253 1173 1420 2006 46 227 55 328 54 610 0 272 -15 413 -65 640 -106 479
-348 958 -672 1329 -523 598 -1239 963 -2032 1036 -129 12 -400 11 -535 -2z
m474 -249 c3 -17 6 -93 6 -168 0 -160 -14 -215 -65 -260 -68 -59 -247 -69
-325 -17 -69 45 -79 79 -87 286 l-6 180 80 0 80 0 6 -172 c6 -163 8 -174 29
-191 27 -23 86 -17 105 10 9 12 13 67 13 190 l0 173 79 0 79 0 6 -31z m593
-90 c115 -34 210 -63 212 -65 2 -2 -4 -31 -14 -65 -20 -67 -12 -64 -108 -34
-37 11 -49 11 -53 2 -2 -7 -24 -81 -49 -166 -25 -85 -47 -156 -49 -158 -6 -6
-156 40 -156 48 0 3 22 81 48 172 l49 166 -64 17 c-35 9 -66 20 -68 24 -4 7
35 120 41 120 2 0 97 -27 211 -61z m-1442 -209 c85 -107 154 -199 152 -204 -2
-5 -34 -20 -73 -33 l-69 -24 -21 27 -21 26 -72 -23 c-70 -23 -71 -23 -71 -58
0 -35 -1 -36 -68 -58 -37 -13 -71 -23 -75 -23 -9 0 -8 407 1 475 l7 49 70 23
c39 12 73 21 77 20 4 -1 77 -90 163 -197z m2090 -65 c30 -19 55 -38 55 -42 0
-5 -18 -35 -40 -68 -22 -33 -40 -63 -40 -66 0 -6 105 -79 114 -79 2 0 23 29
46 65 23 36 45 65 48 65 10 0 132 -82 132 -89 0 -12 -264 -401 -272 -401 -14
0 -128 80 -128 90 0 5 20 38 45 74 25 37 45 70 45 74 -1 4 -26 23 -58 43 l-57
36 -49 -73 c-27 -41 -52 -74 -56 -74 -12 0 -130 79 -130 87 0 4 59 97 132 206
85 128 136 196 145 193 7 -3 38 -21 68 -41z m-2840 -119 c133 -61 197 -227
135 -349 -66 -132 -236 -192 -352 -125 -174 103 -194 303 -44 435 76 67 171
81 261 39z m1579 -256 l52 -49 41 41 c25 25 46 38 53 33 8 -5 -2 -21 -31 -51
l-43 -44 109 -110 110 -110 111 111 112 111 34 -11 c20 -7 72 -49 133 -111
l99 -100 32 31 c19 18 40 29 50 27 16 -3 13 -9 -21 -41 l-40 -37 113 -112 112
-113 59 59 c39 39 61 54 66 46 5 -7 -14 -34 -49 -69 l-56 -56 113 -113 112
-112 57 56 c35 35 60 54 68 49 8 -5 -7 -26 -46 -66 l-59 -59 112 -111 111
-112 37 42 c27 29 41 39 49 31 7 -7 -2 -22 -29 -50 l-39 -40 122 -123 c67 -68
122 -132 122 -141 0 -10 -5 -14 -11 -11 -5 4 -61 -43 -122 -104 l-112 -110
110 -111 c60 -60 114 -110 120 -110 6 0 31 20 55 45 24 25 48 45 52 45 20 0 4
-28 -39 -72 l-47 -47 62 -65 c57 -59 74 -86 55 -86 -4 0 -37 29 -73 65 l-65
65 -110 -110 -110 -110 110 -110 110 -110 65 65 c36 36 69 65 73 65 20 0 1
-31 -55 -87 l-62 -63 47 -48 c26 -26 47 -56 47 -67 0 -15 -14 -6 -58 38 l-57
57 -115 -115 -115 -115 112 -112 c101 -100 114 -110 129 -97 16 13 17 12 11
-12 -4 -14 -60 -78 -127 -144 l-120 -119 40 -41 c37 -37 51 -65 33 -65 -4 0
-27 19 -50 42 l-43 43 -112 -113 -113 -112 53 -53 c47 -48 64 -77 45 -77 -4 0
-32 25 -63 55 l-55 55 -113 -113 -112 -113 55 -53 c30 -29 55 -57 55 -62 0
-20 -23 -7 -73 41 -29 27 -54 50 -57 50 -3 0 -55 -49 -115 -110 l-109 -110 43
-44 c55 -56 37 -71 -21 -17 l-43 40 -121 -120 c-66 -65 -128 -119 -137 -119
-9 0 -14 6 -12 13 3 6 -44 62 -105 122 l-110 110 -112 -112 -113 -113 55 -55
c43 -44 50 -55 34 -55 -11 0 -40 20 -64 45 l-44 45 -61 -60 c-54 -54 -85 -73
-85 -53 0 4 28 36 62 70 l63 63 -110 110 -110 110 -107 -107 c-60 -59 -108
-112 -108 -118 0 -5 25 -35 55 -65 30 -30 55 -58 55 -62 0 -16 -38 8 -87 56
l-53 50 -43 -42 c-39 -38 -67 -53 -67 -35 0 4 20 28 45 53 l45 46 -115 114
-115 115 -113 -113 c-98 -98 -117 -112 -138 -107 -14 3 -57 39 -96 78 -39 40
-87 88 -107 106 l-36 35 -34 -33 c-49 -47 -69 -30 -22 18 l36 37 -77 79 c-43
43 -93 92 -111 108 l-33 30 -54 -53 c-32 -32 -58 -50 -65 -45 -8 5 6 26 44 64
l57 57 -113 112 -112 113 -52 -52 c-32 -31 -57 -49 -64 -44 -8 5 5 25 41 61
29 29 51 56 48 59 -33 37 -215 215 -220 215 -4 0 -17 -13 -30 -30 -13 -16 -27
-30 -31 -30 -18 0 -6 38 17 60 l26 24 -85 86 c-77 78 -106 116 -106 137 0 4
47 -39 105 -97 l105 -105 113 113 112 112 -112 112 -113 113 -108 -108 c-59
-59 -111 -107 -115 -107 -23 0 5 36 98 130 l105 105 -110 110 -110 109 -39
-38 c-51 -50 -68 -29 -17 23 l36 37 -40 39 c-22 21 -40 48 -40 59 0 16 10 11
50 -29 l50 -50 113 113 112 112 -112 112 -113 113 -50 -50 c-39 -38 -50 -45
-50 -30 0 11 18 38 40 60 l40 41 -30 29 c-16 16 -30 38 -30 49 0 17 6 14 40
-19 l40 -39 113 112 112 112 -103 103 c-91 91 -118 127 -95 127 4 0 55 -47
113 -105 l105 -105 110 110 110 110 -113 112 -112 113 -100 -100 c-55 -55
-100 -96 -100 -92 0 22 36 69 104 137 l76 74 -26 27 c-37 39 -21 59 17 23 l30
-28 112 112 112 112 -47 47 c-65 68 -51 90 16 24 l51 -51 113 113 112 113 -45
44 c-41 40 -57 70 -38 70 4 0 29 -21 55 -47 l48 -48 112 112 112 112 -27 29
c-15 15 -27 31 -27 35 0 16 28 5 50 -18 l24 -26 86 85 c78 77 116 106 137 106
4 0 -39 -47 -97 -105 l-105 -105 110 -110 c80 -80 104 -110 90 -110 -12 0 -60
40 -120 100 l-100 100 -112 -112 -113 -113 76 -76 c48 -49 74 -81 69 -89 -5
-8 -33 14 -86 66 l-79 79 -113 -113 -112 -112 113 -112 112 -112 95 94 c70 70
95 89 95 75 0 -12 -35 -55 -85 -105 l-85 -84 108 -108 c58 -59 112 -108 117
-108 6 0 24 14 40 30 16 17 32 30 37 30 17 0 7 -25 -24 -57 l-31 -32 109 -111
109 -110 113 112 112 112 -21 22 c-15 16 -17 23 -7 27 7 2 21 -2 30 -11 16
-14 22 -11 72 36 81 77 106 67 28 -11 l-62 -62 113 -113 112 -112 113 113 112
112 -75 75 c-55 55 -71 76 -59 78 10 3 44 -23 85 -64 l69 -68 35 34 c25 24 38
31 46 23 8 -8 1 -20 -25 -44 l-37 -33 66 -66 c36 -36 65 -74 65 -85 0 -14 -19
0 -75 55 l-74 74 -113 -112 -112 -113 114 -114 113 -114 -58 -73 c-68 -84
-377 -396 -545 -548 -180 -163 -196 -177 -173 -150 l23 26 -113 111 -112 112
-112 -113 -112 -112 109 -109 c73 -73 106 -113 100 -119 -7 -7 -47 26 -120 99
l-109 109 -113 -113 -112 -112 112 -112 112 -112 65 65 c49 48 65 60 65 45 0
-11 -25 -44 -55 -75 l-55 -56 55 -54 c30 -30 55 -63 55 -74 0 -16 -15 -6 -65
44 l-65 65 -113 -113 -112 -112 112 -112 113 -113 64 64 c83 83 99 63 17 -22
l-60 -63 109 -109 110 -110 112 112 113 113 -43 43 c-23 23 -42 46 -42 50 0
18 28 4 65 -33 l41 -40 39 40 c21 22 48 40 59 40 16 0 11 -10 -29 -50 l-49
-50 109 -110 c60 -61 114 -110 120 -110 5 0 58 48 117 107 l108 108 -52 52
c-40 41 -48 53 -33 53 11 0 38 -18 60 -40 l41 -40 39 40 c22 22 49 39 60 40
15 0 9 -11 -30 -50 l-49 -50 114 -115 115 -115 112 112 112 113 -44 45 c-25
25 -45 49 -45 53 0 18 28 3 67 -35 l43 -42 43 42 c39 38 67 53 67 35 0 -4 -20
-28 -45 -53 l-45 -46 110 -109 110 -110 110 110 110 109 -45 46 c-25 25 -45
49 -45 53 0 18 28 3 67 -35 l43 -42 43 42 c23 23 51 42 62 42 15 0 7 -12 -33
-53 l-52 -52 113 -113 112 -112 113 113 112 112 -55 55 c-30 30 -55 62 -55 72
0 10 2 18 4 18 2 0 31 -28 65 -62 l60 -63 113 113 113 112 -112 112 -113 113
-58 -58 c-32 -31 -61 -57 -65 -57 -19 0 -2 30 48 80 l55 56 -55 54 c-49 49
-68 80 -48 80 4 0 33 -26 65 -57 l58 -58 113 113 112 112 -110 110 -110 110
-60 -60 c-33 -33 -64 -60 -68 -60 -20 0 -1 30 50 82 l58 58 -115 115 -115 115
-112 -112 -113 -113 52 -52 c40 -41 48 -53 33 -53 -11 0 -39 19 -62 42 l-43
42 -43 -42 c-23 -23 -52 -42 -62 -42 -15 0 -8 12 33 52 l52 53 -76 76 c-48 49
-74 81 -69 89 5 8 33 -14 86 -66 l78 -78 58 55 c32 30 82 80 112 112 l55 58
-88 88 c-59 59 -84 91 -76 96 8 5 44 -24 99 -79 l87 -86 112 112 112 113 -110
110 c-100 100 -112 109 -130 97 -11 -7 -20 -10 -20 -6 0 20 36 63 141 169
l118 120 -79 80 c-71 71 -94 105 -73 105 4 0 45 -37 90 -82 l83 -83 110 110
110 110 -110 110 -110 110 -90 -90 c-66 -65 -90 -84 -90 -70 0 11 35 54 80
100 l80 80 -113 113 c-112 112 -113 113 -132 92 -10 -11 -22 -20 -27 -20 -14
0 -9 22 9 42 16 18 12 24 -94 130 -91 90 -114 109 -126 100 -18 -15 -29 -4
-17 18 7 13 -13 39 -103 128 l-113 112 -49 -50 c-44 -45 -75 -63 -75 -43 0 4
24 31 52 60 l53 53 -110 110 -110 110 -110 -110 -109 -110 27 -28 c45 -47 30
-60 -21 -17 l-29 24 -23 -24 c-12 -13 -29 -21 -37 -18 -11 4 -8 12 13 34 l28
29 -112 112 -112 113 -115 -115 -115 -114 46 -45 c25 -25 40 -47 34 -49 -7 -3
-31 14 -54 37 l-42 41 -69 -71 c-63 -63 -110 -99 -132 -99 -4 0 35 43 87 95
l95 95 -108 108 c-59 59 -107 111 -107 115 0 19 25 -1 123 -100 l107 -108 115
115 115 114 -42 43 c-34 34 -38 43 -23 43 10 0 34 -14 52 -32 l33 -32 43 42
c23 23 51 42 62 42 15 0 7 -12 -33 -53 l-52 -52 113 -113 112 -112 110 110
109 110 -52 53 c-28 29 -52 56 -52 60 0 18 25 3 74 -43z m-93 -501 c352 -36
601 -186 729 -439 60 -120 82 -213 87 -370 4 -121 1 -160 -16 -238 -39 -179
-127 -352 -269 -532 -100 -127 -353 -377 -529 -524 -79 -65 -143 -122 -143
-127 0 -6 209 -8 505 -7 l504 3 3 -263 3 -262 -972 0 -973 0 0 188 c0 103 4
192 8 198 4 6 133 125 287 265 552 501 751 712 863 919 49 90 69 150 81 236
25 173 -55 334 -198 398 -208 93 -490 45 -745 -128 -38 -25 -73 -43 -76 -39
-7 8 -135 328 -164 409 l-14 42 42 31 c74 52 235 130 345 165 229 74 428 97
642 75z m244 -2107 c-21 -5 -40 12 -30 28 5 8 13 6 27 -7 18 -16 19 -18 3 -21z
m1294 -1231 c79 -41 151 -153 151 -236 0 -131 -134 -265 -266 -265 -160 0
-297 181 -250 333 47 154 229 237 365 168z m-3022 -24 l61 -43 -49 -72 c-27
-40 -49 -76 -49 -80 1 -7 102 -72 113 -72 3 0 26 32 53 70 26 39 51 70 56 70
13 0 128 -79 128 -88 0 -18 -265 -402 -275 -398 -26 10 -125 77 -125 85 0 5
18 35 40 67 22 33 40 62 40 65 0 6 -105 79 -113 79 -2 0 -23 -29 -46 -65 -24
-36 -46 -65 -49 -65 -9 0 -132 82 -132 88 0 14 265 402 274 402 6 0 39 -20 73
-43z m2382 -479 c0 -117 -4 -235 -7 -263 l-7 -49 -74 -23 c-41 -13 -77 -20
-81 -16 -7 8 -167 209 -263 330 l-57 71 78 26 77 27 21 -27 21 -26 72 23 c71
23 71 23 71 59 0 35 1 36 63 56 34 12 68 22 75 22 9 2 12 -46 11 -210z m-1616
97 c37 -10 67 -21 67 -25 0 -4 -22 -82 -48 -173 l-49 -166 64 -17 c35 -9 66
-20 68 -24 4 -6 -31 -109 -40 -118 -3 -4 -417 118 -424 124 -6 5 31 124 38
124 3 0 34 -9 69 -19 46 -14 64 -16 68 -8 6 18 94 320 94 325 0 2 6 2 13 0 6
-3 42 -13 80 -23z m790 -89 c97 -35 117 -84 124 -312 l6 -174 -80 0 -80 0 -6
173 c-7 158 -9 173 -28 190 -28 23 -74 22 -99 -3 -18 -18 -20 -33 -20 -195 l0
-175 -79 0 -78 0 -7 38 c-10 63 -7 281 6 329 14 57 70 116 124 131 56 14 173
13 217 -2z"/>
<path d="M2515 5823 c2 -10 4 -44 4 -75 l1 -57 44 15 45 15 -42 59 c-43 61
-58 73 -52 43z"/>
<path d="M1784 5528 c-11 -5 -28 -23 -38 -39 -14 -24 -15 -35 -6 -69 13 -49
63 -108 108 -127 30 -12 37 -12 65 5 58 33 60 84 9 160 -43 65 -94 91 -138 70z"/>
<path d="M3955 5190 l-110 -110 113 -113 112 -112 112 112 113 113 -110 110
c-60 60 -112 110 -115 110 -3 0 -55 -50 -115 -110z"/>
<path d="M4203 4946 l-112 -113 112 -111 112 -112 113 113 112 112 -112 112
-113 113 -112 -114z"/>
<path d="M4445 4700 l-110 -110 113 -113 112 -112 112 112 113 113 -110 110
c-60 60 -112 110 -115 110 -3 0 -55 -50 -115 -110z"/>
<path d="M1767 4462 c-59 -60 -107 -113 -107 -118 0 -12 202 -214 215 -214 6
0 59 48 118 108 l107 107 -113 113 -112 112 -108 -108z"/>
<path d="M4692 4457 l-112 -112 110 -110 110 -110 113 113 112 112 -110 110
-110 110 -113 -113z"/>
<path d="M4932 4217 l-112 -112 112 -112 113 -113 95 94 c52 51 103 102 112
113 17 18 14 23 -95 131 l-112 112 -113 -113z"/>
<path d="M2000 4208 l-104 -108 112 -113 112 -112 112 112 113 113 -110 110
c-60 60 -114 109 -120 109 -5 -1 -57 -51 -115 -111z"/>
<path d="M1769 3975 c-57 -58 -105 -109 -107 -113 -1 -4 47 -57 108 -117 l110
-110 110 110 110 110 -113 113 -113 113 -105 -106z"/>
<path d="M2252 3967 l-112 -112 110 -110 c60 -60 113 -106 117 -102 29 26 222
221 220 221 -1 1 -52 49 -112 108 l-110 108 -113 -113z"/>
<path d="M2736 3970 l-110 -110 112 -113 112 -112 112 112 113 113 -110 110
c-60 60 -112 110 -115 110 -3 0 -54 -50 -114 -110z"/>
<path d="M4687 3972 l-107 -108 112 -112 112 -112 55 53 c31 28 81 78 110 110
l55 58 -109 109 c-60 61 -112 110 -115 110 -3 0 -54 -49 -113 -108z"/>
<path d="M1522 3727 l-112 -112 113 -113 112 -112 113 113 112 112 -113 113
-112 112 -113 -113z"/>
<path d="M2497 3732 c-59 -60 -107 -113 -107 -118 0 -5 49 -58 108 -117 l108
-107 109 110 c61 61 111 112 112 113 1 2 -48 53 -110 115 l-112 112 -108 -108z"/>
<path d="M2988 3731 c-60 -59 -108 -112 -108 -117 0 -5 49 -57 108 -116 l108
-108 112 113 112 112 -112 112 -113 113 -107 -109z"/>
<path d="M4447 3732 c-59 -59 -107 -112 -107 -117 0 -6 49 -58 108 -117 l108
-107 94 93 c52 51 104 103 114 115 l20 22 -109 109 c-60 61 -112 110 -115 110
-3 0 -54 -48 -113 -108z"/>
<path d="M4935 3730 l-110 -110 115 -115 115 -115 110 110 110 110 -115 115
-115 115 -110 -110z"/>
<path d="M2007 3722 l-107 -107 110 -110 110 -110 110 110 110 110 -107 107
c-59 60 -110 108 -113 108 -3 0 -54 -48 -113 -108z"/>
<path d="M1765 3480 l-110 -110 110 -110 110 -110 112 112 113 113 -107 107
c-59 60 -110 108 -113 108 -3 0 -55 -49 -115 -110z"/>
<path d="M2247 3482 l-107 -107 113 -113 112 -112 102 103 c57 56 106 106 110
110 6 7 -204 227 -217 227 -3 0 -53 -49 -113 -108z"/>
<path d="M2736 3479 l-110 -110 112 -112 112 -112 112 112 113 113 -110 110
c-60 60 -112 110 -115 110 -3 -1 -54 -50 -114 -111z"/>
<path d="M4685 3480 l-110 -110 110 -110 c61 -60 115 -110 120 -110 6 0 60 50
120 110 l110 110 -110 110 c-60 61 -114 110 -120 110 -6 0 -60 -50 -120 -110z"/>
<path d="M1522 3237 l-112 -112 110 -110 110 -110 113 113 112 112 -110 110
-110 110 -113 -113z"/>
<path d="M2005 3240 l-109 -111 112 -111 111 -112 99 94 c54 52 104 103 111
114 12 17 3 29 -95 127 -60 60 -111 109 -114 109 -3 0 -55 -50 -115 -110z"/>
<path d="M2495 3239 l-109 -110 112 -112 112 -112 110 110 110 110 -112 112
-113 112 -110 -110z"/>
<path d="M4445 3240 l-110 -110 115 -115 115 -115 107 107 c60 59 108 112 108
118 0 10 -210 225 -220 225 -3 0 -55 -50 -115 -110z"/>
<path d="M4936 3234 l-110 -115 110 -109 110 -109 114 114 114 114 -109 111
c-60 60 -112 109 -115 109 -3 -1 -54 -53 -114 -115z"/>
<path d="M1767 3002 c-59 -59 -107 -112 -107 -117 0 -6 48 -59 108 -117 l107
-108 107 108 c59 59 110 109 113 112 2 4 -46 56 -108 118 l-112 112 -108 -108z"/>
<path d="M4695 2990 l-110 -110 110 -110 110 -110 112 112 113 113 -107 107
c-59 60 -110 108 -113 108 -3 0 -55 -49 -115 -110z"/>
<path d="M4935 2750 l-110 -110 113 -113 112 -112 112 112 113 113 -110 110
c-60 60 -112 110 -115 110 -3 0 -55 -50 -115 -110z"/>
<path d="M1768 2511 c-60 -59 -108 -112 -108 -117 0 -5 48 -58 108 -117 l107
-107 113 113 112 112 -112 112 -113 112 -107 -108z"/>
<path d="M4692 2507 l-112 -112 113 -113 112 -112 113 113 112 112 -113 113
-112 112 -113 -113z"/>
<path d="M2497 1782 c-59 -59 -107 -112 -107 -117 0 -6 50 -59 110 -120 l110
-110 112 113 113 112 -115 115 -115 115 -108 -108z"/>
<path d="M2982 1777 c-56 -56 -102 -107 -102 -112 0 -6 50 -60 110 -120 l110
-110 112 113 113 112 -110 110 c-60 60 -114 110 -120 110 -6 0 -56 -46 -113
-103z"/>
<path d="M3475 1770 l-110 -110 110 -110 110 -110 112 112 113 113 -107 107
c-59 60 -110 108 -113 108 -3 0 -55 -49 -115 -110z"/>
<path d="M3957 1772 l-107 -107 113 -113 112 -112 110 110 110 110 -110 110
c-60 61 -112 110 -115 110 -3 0 -54 -48 -113 -108z"/>
<path d="M4808 1424 c-51 -27 -60 -71 -29 -132 40 -79 108 -122 156 -100 33
15 58 63 50 98 -9 40 -59 107 -98 130 -38 23 -44 24 -79 4z"/>
<path d="M4153 1014 c-18 -8 -33 -17 -33 -21 0 -6 78 -113 83 -113 1 0 1 34
-1 75 -2 41 -7 75 -10 74 -4 0 -22 -7 -39 -15z"/>
</g>
</svg>
